<mxfile host="app.diagrams.net" modified="2023-02-21T07:05:21.874Z" agent="5.0 (Windows NT 10.0; Win64; x64) AppleWebKit/537.36 (KHTML, like Gecko) Chrome/110.0.0.0 Safari/537.36 Edg/110.0.1587.50" etag="dVQS9f2-hXGiE2QdyICL" version="20.8.21" type="github">
  <diagram name="第 1 页" id="2t0qJHizyL25-_-whmP3">
    <mxGraphModel dx="836" dy="430" grid="0" gridSize="10" guides="1" tooltips="1" connect="1" arrows="1" fold="1" page="1" pageScale="1" pageWidth="827" pageHeight="1169" math="0" shadow="0">
      <root>
        <mxCell id="0" />
        <mxCell id="1" parent="0" />
        <mxCell id="spADeQdhPOCdujOwOU3t-31" value="" style="rounded=0;whiteSpace=wrap;html=1;dashed=1;dashPattern=8 8;" vertex="1" parent="1">
          <mxGeometry x="230" y="85" width="330" height="140" as="geometry" />
        </mxCell>
        <mxCell id="spADeQdhPOCdujOwOU3t-1" value="资源库子系统" style="rounded=0;whiteSpace=wrap;html=1;" vertex="1" parent="1">
          <mxGeometry x="140" y="135" width="80" height="40" as="geometry" />
        </mxCell>
        <mxCell id="spADeQdhPOCdujOwOU3t-2" value="企业进出流程子系统" style="rounded=0;whiteSpace=wrap;html=1;" vertex="1" parent="1">
          <mxGeometry x="250" y="135" width="80" height="40" as="geometry" />
        </mxCell>
        <mxCell id="spADeQdhPOCdujOwOU3t-3" value="孵化过程服务子系统" style="rounded=0;whiteSpace=wrap;html=1;" vertex="1" parent="1">
          <mxGeometry x="360" y="135" width="80" height="40" as="geometry" />
        </mxCell>
        <mxCell id="spADeQdhPOCdujOwOU3t-4" value="导师服务子系统" style="rounded=0;whiteSpace=wrap;html=1;" vertex="1" parent="1">
          <mxGeometry x="470" y="135" width="80" height="40" as="geometry" />
        </mxCell>
        <mxCell id="spADeQdhPOCdujOwOU3t-5" value="孵化企业&lt;div style=&quot;resize: none; outline: none; font-size: 13px; color: rgb(50, 50, 50); font-family: 微软雅黑;&quot;&gt;管理子系统&lt;/div&gt;" style="rounded=0;whiteSpace=wrap;html=1;" vertex="1" parent="1">
          <mxGeometry x="570" y="135" width="80" height="40" as="geometry" />
        </mxCell>
        <mxCell id="spADeQdhPOCdujOwOU3t-6" value="后台扫描服务" style="rounded=0;whiteSpace=wrap;html=1;" vertex="1" parent="1">
          <mxGeometry x="400" y="242" width="80" height="40" as="geometry" />
        </mxCell>
        <mxCell id="spADeQdhPOCdujOwOU3t-7" value="DB" style="rounded=0;whiteSpace=wrap;html=1;" vertex="1" parent="1">
          <mxGeometry x="400" y="312" width="80" height="40" as="geometry" />
        </mxCell>
        <mxCell id="spADeQdhPOCdujOwOU3t-8" value="应用UI" style="rounded=0;whiteSpace=wrap;html=1;" vertex="1" parent="1">
          <mxGeometry x="400" y="30" width="80" height="40" as="geometry" />
        </mxCell>
        <mxCell id="spADeQdhPOCdujOwOU3t-9" value="孵化合同管理子系统" style="rounded=0;whiteSpace=wrap;html=1;" vertex="1" parent="1">
          <mxGeometry x="680" y="135" width="80" height="40" as="geometry" />
        </mxCell>
        <mxCell id="spADeQdhPOCdujOwOU3t-11" value="" style="endArrow=classic;startArrow=classic;html=1;rounded=0;" edge="1" parent="1">
          <mxGeometry width="50" height="50" relative="1" as="geometry">
            <mxPoint x="440" y="110" as="sourcePoint" />
            <mxPoint x="439.5" y="70" as="targetPoint" />
          </mxGeometry>
        </mxCell>
        <mxCell id="spADeQdhPOCdujOwOU3t-12" value="" style="endArrow=none;html=1;rounded=0;" edge="1" parent="1">
          <mxGeometry width="50" height="50" relative="1" as="geometry">
            <mxPoint x="180" y="106" as="sourcePoint" />
            <mxPoint x="720" y="106" as="targetPoint" />
          </mxGeometry>
        </mxCell>
        <mxCell id="spADeQdhPOCdujOwOU3t-13" value="" style="endArrow=none;html=1;rounded=0;" edge="1" parent="1">
          <mxGeometry width="50" height="50" relative="1" as="geometry">
            <mxPoint x="180" y="206" as="sourcePoint" />
            <mxPoint x="720" y="206" as="targetPoint" />
          </mxGeometry>
        </mxCell>
        <mxCell id="spADeQdhPOCdujOwOU3t-14" value="" style="endArrow=classic;startArrow=classic;html=1;rounded=0;" edge="1" parent="1">
          <mxGeometry width="50" height="50" relative="1" as="geometry">
            <mxPoint x="440" y="210" as="sourcePoint" />
            <mxPoint x="439.5" y="242" as="targetPoint" />
          </mxGeometry>
        </mxCell>
        <mxCell id="spADeQdhPOCdujOwOU3t-16" value="" style="endArrow=classic;startArrow=classic;html=1;rounded=0;" edge="1" parent="1">
          <mxGeometry width="50" height="50" relative="1" as="geometry">
            <mxPoint x="439.5" y="283" as="sourcePoint" />
            <mxPoint x="439.5" y="313" as="targetPoint" />
          </mxGeometry>
        </mxCell>
        <mxCell id="spADeQdhPOCdujOwOU3t-17" value="" style="endArrow=classic;startArrow=classic;html=1;rounded=0;" edge="1" parent="1">
          <mxGeometry width="50" height="50" relative="1" as="geometry">
            <mxPoint x="179.5" y="105" as="sourcePoint" />
            <mxPoint x="179.5" y="135" as="targetPoint" />
          </mxGeometry>
        </mxCell>
        <mxCell id="spADeQdhPOCdujOwOU3t-18" value="" style="endArrow=classic;startArrow=classic;html=1;rounded=0;" edge="1" parent="1">
          <mxGeometry width="50" height="50" relative="1" as="geometry">
            <mxPoint x="179.5" y="176" as="sourcePoint" />
            <mxPoint x="179.5" y="206" as="targetPoint" />
          </mxGeometry>
        </mxCell>
        <mxCell id="spADeQdhPOCdujOwOU3t-19" value="" style="endArrow=classic;startArrow=classic;html=1;rounded=0;" edge="1" parent="1">
          <mxGeometry width="50" height="50" relative="1" as="geometry">
            <mxPoint x="289.5" y="175" as="sourcePoint" />
            <mxPoint x="289.5" y="205" as="targetPoint" />
          </mxGeometry>
        </mxCell>
        <mxCell id="spADeQdhPOCdujOwOU3t-20" value="" style="endArrow=classic;startArrow=classic;html=1;rounded=0;" edge="1" parent="1">
          <mxGeometry width="50" height="50" relative="1" as="geometry">
            <mxPoint x="400" y="175" as="sourcePoint" />
            <mxPoint x="400" y="205" as="targetPoint" />
          </mxGeometry>
        </mxCell>
        <mxCell id="spADeQdhPOCdujOwOU3t-21" value="" style="endArrow=classic;startArrow=classic;html=1;rounded=0;" edge="1" parent="1">
          <mxGeometry width="50" height="50" relative="1" as="geometry">
            <mxPoint x="509.5" y="175" as="sourcePoint" />
            <mxPoint x="509.5" y="205" as="targetPoint" />
          </mxGeometry>
        </mxCell>
        <mxCell id="spADeQdhPOCdujOwOU3t-22" value="" style="endArrow=classic;startArrow=classic;html=1;rounded=0;" edge="1" parent="1">
          <mxGeometry width="50" height="50" relative="1" as="geometry">
            <mxPoint x="609.5" y="175" as="sourcePoint" />
            <mxPoint x="609.5" y="205" as="targetPoint" />
          </mxGeometry>
        </mxCell>
        <mxCell id="spADeQdhPOCdujOwOU3t-23" value="" style="endArrow=classic;startArrow=classic;html=1;rounded=0;" edge="1" parent="1">
          <mxGeometry width="50" height="50" relative="1" as="geometry">
            <mxPoint x="719.5" y="175" as="sourcePoint" />
            <mxPoint x="719.5" y="205" as="targetPoint" />
          </mxGeometry>
        </mxCell>
        <mxCell id="spADeQdhPOCdujOwOU3t-25" value="" style="endArrow=classic;startArrow=classic;html=1;rounded=0;" edge="1" parent="1">
          <mxGeometry width="50" height="50" relative="1" as="geometry">
            <mxPoint x="289.5" y="105" as="sourcePoint" />
            <mxPoint x="289.5" y="135" as="targetPoint" />
          </mxGeometry>
        </mxCell>
        <mxCell id="spADeQdhPOCdujOwOU3t-26" value="" style="endArrow=classic;startArrow=classic;html=1;rounded=0;" edge="1" parent="1">
          <mxGeometry width="50" height="50" relative="1" as="geometry">
            <mxPoint x="399.5" y="105" as="sourcePoint" />
            <mxPoint x="399.5" y="135" as="targetPoint" />
          </mxGeometry>
        </mxCell>
        <mxCell id="spADeQdhPOCdujOwOU3t-27" value="" style="endArrow=classic;startArrow=classic;html=1;rounded=0;" edge="1" parent="1">
          <mxGeometry width="50" height="50" relative="1" as="geometry">
            <mxPoint x="509.5" y="105" as="sourcePoint" />
            <mxPoint x="509.5" y="135" as="targetPoint" />
          </mxGeometry>
        </mxCell>
        <mxCell id="spADeQdhPOCdujOwOU3t-28" value="" style="endArrow=classic;startArrow=classic;html=1;rounded=0;" edge="1" parent="1">
          <mxGeometry width="50" height="50" relative="1" as="geometry">
            <mxPoint x="609.5" y="105" as="sourcePoint" />
            <mxPoint x="609.5" y="135" as="targetPoint" />
          </mxGeometry>
        </mxCell>
        <mxCell id="spADeQdhPOCdujOwOU3t-29" value="" style="endArrow=classic;startArrow=classic;html=1;rounded=0;" edge="1" parent="1">
          <mxGeometry width="50" height="50" relative="1" as="geometry">
            <mxPoint x="719.5" y="105" as="sourcePoint" />
            <mxPoint x="719.5" y="135" as="targetPoint" />
          </mxGeometry>
        </mxCell>
        <mxCell id="spADeQdhPOCdujOwOU3t-32" value="企业/团队" style="text;html=1;strokeColor=none;fillColor=none;align=center;verticalAlign=middle;whiteSpace=wrap;rounded=0;" vertex="1" parent="1">
          <mxGeometry x="338" y="80" width="60" height="30" as="geometry" />
        </mxCell>
      </root>
    </mxGraphModel>
  </diagram>
</mxfile>
